<mxfile host="app.diagrams.net" modified="2023-12-23T06:51:08.718Z" agent="Mozilla/5.0 (Windows NT 10.0; Win64; x64) AppleWebKit/537.36 (KHTML, like Gecko) Chrome/120.0.0.0 Safari/537.36" etag="tHJvrfS6I1y3OFcKVQos" version="22.1.11" type="github">
  <diagram id="C5RBs43oDa-KdzZeNtuy" name="Page-1">
    <mxGraphModel dx="2117" dy="522" grid="1" gridSize="10" guides="1" tooltips="1" connect="1" arrows="1" fold="1" page="1" pageScale="1" pageWidth="827" pageHeight="1169" math="0" shadow="0">
      <root>
        <mxCell id="WIyWlLk6GJQsqaUBKTNV-0" />
        <mxCell id="WIyWlLk6GJQsqaUBKTNV-1" parent="WIyWlLk6GJQsqaUBKTNV-0" />
        <mxCell id="1xjeHV1YQOLDIrWdK9Ab-0" value="" style="endArrow=none;html=1;rounded=0;" edge="1" parent="WIyWlLk6GJQsqaUBKTNV-1">
          <mxGeometry width="50" height="50" relative="1" as="geometry">
            <mxPoint x="80" y="80" as="sourcePoint" />
            <mxPoint x="-240" y="80" as="targetPoint" />
          </mxGeometry>
        </mxCell>
        <mxCell id="1xjeHV1YQOLDIrWdK9Ab-1" value="" style="endArrow=none;html=1;rounded=0;" edge="1" parent="WIyWlLk6GJQsqaUBKTNV-1">
          <mxGeometry width="50" height="50" relative="1" as="geometry">
            <mxPoint x="90" y="80" as="sourcePoint" />
            <mxPoint x="720" y="80" as="targetPoint" />
          </mxGeometry>
        </mxCell>
        <mxCell id="1xjeHV1YQOLDIrWdK9Ab-2" value="" style="endArrow=none;html=1;rounded=0;" edge="1" parent="WIyWlLk6GJQsqaUBKTNV-1">
          <mxGeometry width="50" height="50" relative="1" as="geometry">
            <mxPoint x="80" y="800.941162109375" as="sourcePoint" />
            <mxPoint x="80" y="80" as="targetPoint" />
          </mxGeometry>
        </mxCell>
        <mxCell id="1xjeHV1YQOLDIrWdK9Ab-3" value="" style="endArrow=none;html=1;rounded=0;" edge="1" parent="WIyWlLk6GJQsqaUBKTNV-1">
          <mxGeometry width="50" height="50" relative="1" as="geometry">
            <mxPoint x="-240" y="793.7647202435662" as="sourcePoint" />
            <mxPoint x="-240" y="80" as="targetPoint" />
          </mxGeometry>
        </mxCell>
        <mxCell id="1xjeHV1YQOLDIrWdK9Ab-4" value="" style="endArrow=none;html=1;rounded=0;" edge="1" parent="WIyWlLk6GJQsqaUBKTNV-1">
          <mxGeometry width="50" height="50" relative="1" as="geometry">
            <mxPoint x="720" y="800" as="sourcePoint" />
            <mxPoint x="720" y="80" as="targetPoint" />
          </mxGeometry>
        </mxCell>
        <mxCell id="1xjeHV1YQOLDIrWdK9Ab-5" value="" style="endArrow=none;html=1;rounded=0;" edge="1" parent="WIyWlLk6GJQsqaUBKTNV-1">
          <mxGeometry width="50" height="50" relative="1" as="geometry">
            <mxPoint x="90" y="800.9410903033088" as="sourcePoint" />
            <mxPoint x="90" y="80" as="targetPoint" />
          </mxGeometry>
        </mxCell>
        <mxCell id="1xjeHV1YQOLDIrWdK9Ab-6" value="" style="endArrow=none;html=1;rounded=0;" edge="1" parent="WIyWlLk6GJQsqaUBKTNV-1">
          <mxGeometry width="50" height="50" relative="1" as="geometry">
            <mxPoint x="90" y="120" as="sourcePoint" />
            <mxPoint x="720" y="120" as="targetPoint" />
          </mxGeometry>
        </mxCell>
        <mxCell id="1xjeHV1YQOLDIrWdK9Ab-7" value="" style="endArrow=none;html=1;rounded=0;" edge="1" parent="WIyWlLk6GJQsqaUBKTNV-1">
          <mxGeometry width="50" height="50" relative="1" as="geometry">
            <mxPoint x="80" y="120" as="sourcePoint" />
            <mxPoint x="-240" y="120" as="targetPoint" />
          </mxGeometry>
        </mxCell>
        <mxCell id="1xjeHV1YQOLDIrWdK9Ab-8" style="edgeStyle=orthogonalEdgeStyle;rounded=0;orthogonalLoop=1;jettySize=auto;html=1;exitX=0.5;exitY=1;exitDx=0;exitDy=0;entryX=0.5;entryY=0;entryDx=0;entryDy=0;" edge="1" parent="WIyWlLk6GJQsqaUBKTNV-1" source="1xjeHV1YQOLDIrWdK9Ab-9" target="1xjeHV1YQOLDIrWdK9Ab-16">
          <mxGeometry relative="1" as="geometry" />
        </mxCell>
        <mxCell id="1xjeHV1YQOLDIrWdK9Ab-9" value="&lt;span style=&quot;font-size: 14px;&quot;&gt;Vào thẻ Muốn điểu chỉnh Deadline&lt;/span&gt;" style="rounded=1;whiteSpace=wrap;html=1;" vertex="1" parent="WIyWlLk6GJQsqaUBKTNV-1">
          <mxGeometry x="-160" y="260" width="190" height="50" as="geometry" />
        </mxCell>
        <mxCell id="1xjeHV1YQOLDIrWdK9Ab-10" value="&lt;font style=&quot;font-size: 24px;&quot;&gt;Hệ thống&lt;/font&gt;" style="rounded=0;whiteSpace=wrap;html=1;" vertex="1" parent="WIyWlLk6GJQsqaUBKTNV-1">
          <mxGeometry x="90" y="80" width="630" height="40" as="geometry" />
        </mxCell>
        <mxCell id="1xjeHV1YQOLDIrWdK9Ab-11" value="&lt;font style=&quot;font-size: 24px;&quot;&gt;Người dùng&lt;/font&gt;" style="rounded=0;whiteSpace=wrap;html=1;" vertex="1" parent="WIyWlLk6GJQsqaUBKTNV-1">
          <mxGeometry x="-240" y="80" width="320" height="40" as="geometry" />
        </mxCell>
        <mxCell id="1xjeHV1YQOLDIrWdK9Ab-12" value="" style="ellipse;whiteSpace=wrap;html=1;aspect=fixed;fillColor=#190033;" vertex="1" parent="WIyWlLk6GJQsqaUBKTNV-1">
          <mxGeometry x="-170" y="140" width="20" height="20" as="geometry" />
        </mxCell>
        <mxCell id="1xjeHV1YQOLDIrWdK9Ab-13" style="edgeStyle=orthogonalEdgeStyle;rounded=0;orthogonalLoop=1;jettySize=auto;html=1;exitX=1;exitY=1;exitDx=0;exitDy=0;entryX=0.419;entryY=-0.008;entryDx=0;entryDy=0;entryPerimeter=0;" edge="1" parent="WIyWlLk6GJQsqaUBKTNV-1" source="1xjeHV1YQOLDIrWdK9Ab-12" target="1xjeHV1YQOLDIrWdK9Ab-9">
          <mxGeometry relative="1" as="geometry">
            <Array as="points">
              <mxPoint x="-80" y="157" />
            </Array>
          </mxGeometry>
        </mxCell>
        <mxCell id="1xjeHV1YQOLDIrWdK9Ab-14" style="edgeStyle=orthogonalEdgeStyle;rounded=0;orthogonalLoop=1;jettySize=auto;html=1;exitX=0.5;exitY=1;exitDx=0;exitDy=0;entryX=0.5;entryY=0;entryDx=0;entryDy=0;" edge="1" parent="WIyWlLk6GJQsqaUBKTNV-1" source="1xjeHV1YQOLDIrWdK9Ab-16" target="1xjeHV1YQOLDIrWdK9Ab-19">
          <mxGeometry relative="1" as="geometry" />
        </mxCell>
        <mxCell id="1xjeHV1YQOLDIrWdK9Ab-15" style="edgeStyle=orthogonalEdgeStyle;rounded=0;orthogonalLoop=1;jettySize=auto;html=1;exitX=1;exitY=1;exitDx=0;exitDy=0;entryX=0;entryY=0.5;entryDx=0;entryDy=0;" edge="1" parent="WIyWlLk6GJQsqaUBKTNV-1" source="1xjeHV1YQOLDIrWdK9Ab-16" target="1xjeHV1YQOLDIrWdK9Ab-26">
          <mxGeometry relative="1" as="geometry" />
        </mxCell>
        <mxCell id="1xjeHV1YQOLDIrWdK9Ab-16" value="&lt;font style=&quot;font-size: 14px;&quot;&gt;Set Startdate và Duedate&lt;/font&gt;" style="rounded=1;whiteSpace=wrap;html=1;" vertex="1" parent="WIyWlLk6GJQsqaUBKTNV-1">
          <mxGeometry x="-155" y="360" width="180" height="60" as="geometry" />
        </mxCell>
        <mxCell id="1xjeHV1YQOLDIrWdK9Ab-17" style="edgeStyle=orthogonalEdgeStyle;rounded=0;orthogonalLoop=1;jettySize=auto;html=1;exitX=1;exitY=0.5;exitDx=0;exitDy=0;" edge="1" parent="WIyWlLk6GJQsqaUBKTNV-1" source="1xjeHV1YQOLDIrWdK9Ab-18" target="1xjeHV1YQOLDIrWdK9Ab-30">
          <mxGeometry relative="1" as="geometry" />
        </mxCell>
        <mxCell id="1xjeHV1YQOLDIrWdK9Ab-18" value="&lt;span style=&quot;font-size: 14px;&quot;&gt;Nhập thời hạn công việc&lt;/span&gt;" style="rounded=1;whiteSpace=wrap;html=1;" vertex="1" parent="WIyWlLk6GJQsqaUBKTNV-1">
          <mxGeometry x="340" y="230" width="160" height="60" as="geometry" />
        </mxCell>
        <mxCell id="1xjeHV1YQOLDIrWdK9Ab-19" value="&lt;font style=&quot;font-size: 14px;&quot;&gt;Enter để xác nhận&lt;/font&gt;" style="rounded=1;whiteSpace=wrap;html=1;" vertex="1" parent="WIyWlLk6GJQsqaUBKTNV-1">
          <mxGeometry x="-140" y="470" width="150" height="60" as="geometry" />
        </mxCell>
        <mxCell id="1xjeHV1YQOLDIrWdK9Ab-20" style="edgeStyle=orthogonalEdgeStyle;rounded=0;orthogonalLoop=1;jettySize=auto;html=1;exitX=0.5;exitY=1;exitDx=0;exitDy=0;entryX=1;entryY=0;entryDx=0;entryDy=0;" edge="1" parent="WIyWlLk6GJQsqaUBKTNV-1" source="1xjeHV1YQOLDIrWdK9Ab-21" target="1xjeHV1YQOLDIrWdK9Ab-23">
          <mxGeometry relative="1" as="geometry" />
        </mxCell>
        <mxCell id="1xjeHV1YQOLDIrWdK9Ab-21" value="&lt;font style=&quot;font-size: 14px;&quot;&gt;Báo lỗi, bắt nhập lại&lt;/font&gt;" style="rounded=1;whiteSpace=wrap;html=1;" vertex="1" parent="WIyWlLk6GJQsqaUBKTNV-1">
          <mxGeometry x="350" y="510" width="160" height="60" as="geometry" />
        </mxCell>
        <mxCell id="1xjeHV1YQOLDIrWdK9Ab-22" value="" style="ellipse;whiteSpace=wrap;html=1;aspect=fixed;" vertex="1" parent="WIyWlLk6GJQsqaUBKTNV-1">
          <mxGeometry x="-30" y="670" width="20" height="20" as="geometry" />
        </mxCell>
        <mxCell id="1xjeHV1YQOLDIrWdK9Ab-23" value="" style="ellipse;whiteSpace=wrap;html=1;aspect=fixed;fillColor=#190033;" vertex="1" parent="WIyWlLk6GJQsqaUBKTNV-1">
          <mxGeometry x="-27.5" y="672.5" width="15" height="15" as="geometry" />
        </mxCell>
        <mxCell id="1xjeHV1YQOLDIrWdK9Ab-24" style="edgeStyle=orthogonalEdgeStyle;rounded=0;orthogonalLoop=1;jettySize=auto;html=1;exitX=1;exitY=0;exitDx=0;exitDy=0;entryX=0;entryY=1;entryDx=0;entryDy=0;" edge="1" parent="WIyWlLk6GJQsqaUBKTNV-1" source="1xjeHV1YQOLDIrWdK9Ab-26" target="1xjeHV1YQOLDIrWdK9Ab-18">
          <mxGeometry relative="1" as="geometry">
            <Array as="points">
              <mxPoint x="65" y="440" />
              <mxPoint x="340" y="440" />
            </Array>
          </mxGeometry>
        </mxCell>
        <mxCell id="1xjeHV1YQOLDIrWdK9Ab-25" style="edgeStyle=orthogonalEdgeStyle;rounded=0;orthogonalLoop=1;jettySize=auto;html=1;exitX=1;exitY=1;exitDx=0;exitDy=0;entryX=0;entryY=0.5;entryDx=0;entryDy=0;" edge="1" parent="WIyWlLk6GJQsqaUBKTNV-1" source="1xjeHV1YQOLDIrWdK9Ab-26" target="1xjeHV1YQOLDIrWdK9Ab-21">
          <mxGeometry relative="1" as="geometry">
            <Array as="points">
              <mxPoint x="65" y="460" />
              <mxPoint x="340" y="460" />
            </Array>
          </mxGeometry>
        </mxCell>
        <mxCell id="1xjeHV1YQOLDIrWdK9Ab-26" value="" style="rhombus;whiteSpace=wrap;html=1;" vertex="1" parent="WIyWlLk6GJQsqaUBKTNV-1">
          <mxGeometry x="50" y="430" width="20" height="20" as="geometry" />
        </mxCell>
        <mxCell id="1xjeHV1YQOLDIrWdK9Ab-27" value="Nếu Startdate &amp;lt; Duedate" style="text;html=1;align=center;verticalAlign=middle;resizable=0;points=[];autosize=1;strokeColor=none;fillColor=none;" vertex="1" parent="WIyWlLk6GJQsqaUBKTNV-1">
          <mxGeometry x="120" y="410" width="160" height="30" as="geometry" />
        </mxCell>
        <mxCell id="1xjeHV1YQOLDIrWdK9Ab-28" value="Nếu Startdate &amp;gt;= Duedate" style="text;html=1;align=center;verticalAlign=middle;resizable=0;points=[];autosize=1;strokeColor=none;fillColor=none;" vertex="1" parent="WIyWlLk6GJQsqaUBKTNV-1">
          <mxGeometry x="130" y="458" width="160" height="30" as="geometry" />
        </mxCell>
        <mxCell id="1xjeHV1YQOLDIrWdK9Ab-29" style="edgeStyle=orthogonalEdgeStyle;rounded=0;orthogonalLoop=1;jettySize=auto;html=1;exitX=0.5;exitY=1;exitDx=0;exitDy=0;entryX=1;entryY=0.5;entryDx=0;entryDy=0;" edge="1" parent="WIyWlLk6GJQsqaUBKTNV-1" source="1xjeHV1YQOLDIrWdK9Ab-30" target="1xjeHV1YQOLDIrWdK9Ab-22">
          <mxGeometry relative="1" as="geometry" />
        </mxCell>
        <mxCell id="1xjeHV1YQOLDIrWdK9Ab-30" value="&lt;font style=&quot;font-size: 14px;&quot;&gt;Thông báo cho người dùng khi sắp tới Deadline&lt;/font&gt;" style="rounded=1;whiteSpace=wrap;html=1;" vertex="1" parent="WIyWlLk6GJQsqaUBKTNV-1">
          <mxGeometry x="550" y="385" width="150" height="80" as="geometry" />
        </mxCell>
      </root>
    </mxGraphModel>
  </diagram>
</mxfile>
